<?xml version="1.0" encoding="UTF-8"?>
<svg id="Layer_1" data-name="Layer 1" xmlns="http://www.w3.org/2000/svg" viewBox="0 0 500 500">
  <defs>
    <style>
      .cls-1 {
        fill: #ffe000;
      }
    </style>
  </defs>
  <path class="cls-1" d="M200.22,172.47l25.58-46.3c10.64-19.26,38.36-19.19,48.9.13l25.34,46.43c3.99,7.31,11.03,12.45,19.2,14.03l51.94,10.02c21.61,4.17,30.11,30.55,14.99,46.55l-36.33,38.45c-5.72,6.05-8.43,14.34-7.41,22.6l6.52,52.49c2.71,21.84-19.75,38.07-39.64,28.64l-47.79-22.67c-7.52-3.57-16.24-3.59-23.78-.06l-47.91,22.42c-19.93,9.33-42.32-7.02-39.49-28.85l6.79-52.46c1.07-8.25-1.6-16.56-7.29-22.64l-36.13-38.63c-15.03-16.08-6.4-42.41,15.23-46.47l51.99-9.75c8.18-1.53,15.25-6.64,19.27-13.93Z"/>
</svg>